<svg width="628" height="272" viewBox="0 0 628 272" fill="none" xmlns="http://www.w3.org/2000/svg">
<path d="M260.283 0.0124512L210.211 9.78323L226.44 23.868L141.088 122.153L96.7852 90.9917L96.0247 90.4514C91.6858 87.4217 85.6721 88.1365 82.1769 92.251L0.141357 188.911L1.62921 190.399L90.8546 114.673L136.392 146.703C141.109 149.999 147.692 149.296 151.549 144.858L243.65 38.8005L257.656 50.9568L260.283 0.0124512ZM208.17 96.0828V241.211H246.144V52.3574L208.17 96.0828ZM162.155 241.211H200.129V105.347L162.155 149.072V241.211ZM116.144 144.783V241.211H154.113V158.327L147.023 166.498L116.144 144.783ZM70.1286 144.704V241.211H108.102V139.127L91.3242 127.328L70.1286 144.704ZM62.0867 151.291V241.211H24.1174V182.416L62.0867 151.291Z" fill="white"/>
<path d="M280.1 51H295.8L302.8 101.1H303L310 51H325.7V121H315.3V68H315.1L307.1 121H297.9L289.9 68H289.7V121H280.1V51ZM349.809 122C344.409 122 340.275 120.467 337.409 117.4C334.542 114.333 333.109 110 333.109 104.4V67.6C333.109 62 334.542 57.6667 337.409 54.6C340.275 51.5333 344.409 50 349.809 50C355.209 50 359.342 51.5333 362.209 54.6C365.075 57.6667 366.509 62 366.509 67.6V104.4C366.509 110 365.075 114.333 362.209 117.4C359.342 120.467 355.209 122 349.809 122ZM349.809 112C353.609 112 355.509 109.7 355.509 105.1V66.9C355.509 62.3 353.609 60 349.809 60C346.009 60 344.109 62.3 344.109 66.9V105.1C344.109 109.7 346.009 112 349.809 112ZM373.948 51H387.748L398.448 92.9H398.648V51H408.448V121H397.148L383.948 69.9H383.748V121H373.948V51ZM416.623 51H446.623V61H427.623V79.5H442.723V89.5H427.623V111H446.623V121H416.623V51ZM463.052 91.2L449.752 51H461.452L468.952 76.7H469.152L476.652 51H487.352L474.052 91.2V121H463.052V91.2ZM280.1 171H309.2V181H291.1V200.5H305.3V210.5H291.1V241H280.1V171ZM314.475 171H325.475V241H314.475V171ZM330.813 171H341.913L349.113 225.3H349.313L356.513 171H366.613L356.013 241H341.413L330.813 171ZM371.897 171H401.897V181H382.897V199.5H397.997V209.5H382.897V231H401.897V241H371.897V171Z" fill="white"/>
</svg>
