<svg width="631" height="242" viewBox="0 0 631 242" fill="none" xmlns="http://www.w3.org/2000/svg">
<path d="M260.283 0.0124512L210.211 9.78323L226.44 23.868L141.088 122.153L96.7852 90.9917L96.0247 90.4514C91.6858 87.4217 85.6721 88.1365 82.1769 92.251L0.141357 188.911L1.62921 190.399L90.8546 114.673L136.392 146.703C141.109 149.999 147.692 149.296 151.549 144.858L243.65 38.8005L257.656 50.9568L260.283 0.0124512ZM208.17 96.0828V241.211H246.144V52.3574L208.17 96.0828ZM162.155 241.211H200.129V105.347L162.155 149.072V241.211ZM116.144 144.783V241.211H154.113V158.327L147.023 166.498L116.144 144.783ZM70.1286 144.704V241.211H108.102V139.127L91.3242 127.328L70.1286 144.704ZM62.0867 151.291V241.211H24.1174V182.416L62.0867 151.291Z" fill="white"/>
<path d="M361.9 37.2V39.2C359.633 39.2667 357.9 39.5333 356.7 40C355.567 40.4 354.8 41.2 354.4 42.4C354 43.5333 353.8 45.3333 353.8 47.8V97.4C353.8 99.8 354 101.6 354.4 102.8C354.8 104 355.567 104.8 356.7 105.2C357.9 105.6 359.633 105.867 361.9 106V108C360.367 107.867 358.433 107.8 356.1 107.8C353.833 107.733 351.533 107.7 349.2 107.7C346.6 107.7 344.167 107.733 341.9 107.8C339.633 107.8 337.8 107.867 336.4 108V106C338.667 105.867 340.367 105.6 341.5 105.2C342.7 104.8 343.5 104 343.9 102.8C344.3 101.6 344.5 99.8 344.5 97.4V42.4L344.9 42.7L320.4 108.5H318.8L293.6 43.6V96.4C293.6 98.8 293.8 100.7 294.2 102.1C294.667 103.433 295.533 104.4 296.8 105C298.133 105.533 300.1 105.867 302.7 106V108C301.5 107.867 299.933 107.8 298 107.8C296.067 107.733 294.233 107.7 292.5 107.7C290.833 107.7 289.133 107.733 287.4 107.8C285.733 107.8 284.333 107.867 283.2 108V106C285.467 105.867 287.167 105.533 288.3 105C289.5 104.4 290.3 103.433 290.7 102.1C291.1 100.7 291.3 98.8 291.3 96.4V47.8C291.3 45.3333 291.1 43.5333 290.7 42.4C290.3 41.2 289.5 40.4 288.3 40C287.167 39.5333 285.467 39.2667 283.2 39.2V37.2C284.333 37.2667 285.733 37.3333 287.4 37.4C289.133 37.4667 290.833 37.5 292.5 37.5C293.967 37.5 295.467 37.4667 297 37.4C298.6 37.3333 299.933 37.2667 301 37.2L323.7 97L322 97.8L344.5 37.5C345.3 37.5 346.067 37.5 346.8 37.5C347.6 37.5 348.4 37.5 349.2 37.5C351.533 37.5 353.833 37.4667 356.1 37.4C358.433 37.3333 360.367 37.2667 361.9 37.2ZM402.428 35.8C408.761 35.8 414.295 37.2333 419.028 40.1C423.828 42.9667 427.528 47.1 430.128 52.5C432.795 57.8333 434.128 64.3333 434.128 72C434.128 79.4667 432.761 86 430.028 91.6C427.361 97.2 423.628 101.567 418.828 104.7C414.028 107.833 408.528 109.4 402.328 109.4C395.995 109.4 390.428 107.967 385.628 105.1C380.895 102.233 377.195 98.1 374.528 92.7C371.928 87.3 370.628 80.8 370.628 73.2C370.628 65.7333 371.995 59.2 374.728 53.6C377.461 48 381.195 43.6333 385.928 40.5C390.728 37.3667 396.228 35.8 402.428 35.8ZM402.028 37.6C397.695 37.6 393.928 39.1 390.728 42.1C387.528 45.1 385.028 49.2333 383.228 54.5C381.495 59.7667 380.628 65.8667 380.628 72.8C380.628 79.8667 381.595 86.0333 383.528 91.3C385.528 96.5 388.195 100.533 391.528 103.4C394.928 106.2 398.661 107.6 402.728 107.6C407.061 107.6 410.828 106.1 414.028 103.1C417.228 100.1 419.695 95.9667 421.428 90.7C423.228 85.3667 424.128 79.2667 424.128 72.4C424.128 65.2667 423.128 59.1 421.128 53.9C419.195 48.7 416.561 44.7 413.228 41.9C409.895 39.0333 406.161 37.6 402.028 37.6ZM505.668 37.2V39.2C503.401 39.2667 501.668 39.6 500.468 40.2C499.335 40.8 498.568 41.7667 498.168 43.1C497.768 44.4333 497.568 46.3333 497.568 48.8V108.5C497.168 108.5 496.768 108.5 496.368 108.5C496.035 108.5 495.668 108.5 495.268 108.5L453.268 43.6V96.4C453.268 98.8 453.468 100.7 453.868 102.1C454.335 103.433 455.201 104.4 456.468 105C457.801 105.533 459.768 105.867 462.368 106V108C461.168 107.867 459.601 107.8 457.668 107.8C455.735 107.733 453.901 107.7 452.168 107.7C450.501 107.7 448.801 107.733 447.068 107.8C445.401 107.8 444.001 107.867 442.868 108V106C445.135 105.867 446.835 105.533 447.968 105C449.168 104.4 449.968 103.433 450.368 102.1C450.768 100.7 450.968 98.8 450.968 96.4V47.8C450.968 45.3333 450.768 43.5333 450.368 42.4C449.968 41.2 449.168 40.4 447.968 40C446.835 39.5333 445.135 39.2667 442.868 39.2V37.2C444.001 37.2667 445.401 37.3333 447.068 37.4C448.801 37.4667 450.501 37.5 452.168 37.5C453.635 37.5 455.035 37.4667 456.368 37.4C457.701 37.3333 458.901 37.2667 459.968 37.2L495.268 91.6V48.8C495.268 46.3333 495.035 44.4333 494.568 43.1C494.168 41.7667 493.301 40.8 491.968 40.2C490.701 39.6 488.768 39.2667 486.168 39.2V37.2C487.368 37.2667 488.935 37.3333 490.868 37.4C492.868 37.4667 494.701 37.5 496.368 37.5C498.101 37.5 499.801 37.4667 501.468 37.4C503.201 37.3333 504.601 37.2667 505.668 37.2ZM563.373 37.2C563.107 39.5333 562.907 41.8 562.773 44C562.707 46.2 562.673 47.8667 562.673 49C562.673 50.2 562.707 51.3667 562.773 52.5C562.84 53.5667 562.907 54.4667 562.973 55.2H560.673C560.273 51.2667 559.707 48.1667 558.973 45.9C558.24 43.5667 556.973 41.9333 555.173 41C553.44 40 550.807 39.5 547.273 39.5H538.973C536.707 39.5 534.973 39.7 533.773 40.1C532.64 40.4333 531.873 41.2 531.473 42.4C531.073 43.5333 530.873 45.3333 530.873 47.8V97.4C530.873 99.8 531.073 101.6 531.473 102.8C531.873 104 532.64 104.8 533.773 105.2C534.973 105.533 536.707 105.7 538.973 105.7H546.273C550.473 105.7 553.64 105.133 555.773 104C557.973 102.867 559.54 101.033 560.473 98.5C561.473 95.9 562.207 92.4 562.673 88H564.973C564.773 89.8 564.673 92.2 564.673 95.2C564.673 96.4667 564.707 98.3 564.773 100.7C564.907 103.033 565.107 105.467 565.373 108C561.973 107.867 558.14 107.8 553.873 107.8C549.607 107.733 545.807 107.7 542.473 107.7C541.007 107.7 539.107 107.7 536.773 107.7C534.507 107.7 532.04 107.733 529.373 107.8C526.707 107.8 524.007 107.833 521.273 107.9C518.54 107.9 515.94 107.933 513.473 108V106C515.74 105.867 517.44 105.6 518.573 105.2C519.773 104.8 520.573 104 520.973 102.8C521.373 101.6 521.573 99.8 521.573 97.4V47.8C521.573 45.3333 521.373 43.5333 520.973 42.4C520.573 41.2 519.773 40.4 518.573 40C517.44 39.5333 515.74 39.2667 513.473 39.2V37.2C515.94 37.2667 518.54 37.3333 521.273 37.4C524.007 37.4 526.707 37.4333 529.373 37.5C532.04 37.5 534.507 37.5 536.773 37.5C539.107 37.5 541.007 37.5 542.473 37.5C545.54 37.5 549.007 37.5 552.873 37.5C556.807 37.4333 560.307 37.3333 563.373 37.2ZM546.173 71.4C546.173 71.4 546.173 71.7333 546.173 72.4C546.173 73.0667 546.173 73.4 546.173 73.4H527.873C527.873 73.4 527.873 73.0667 527.873 72.4C527.873 71.7333 527.873 71.4 527.873 71.4H546.173ZM549.073 58.2C548.807 62 548.673 64.9 548.673 66.9C548.74 68.9 548.773 70.7333 548.773 72.4C548.773 74.0667 548.807 75.9 548.873 77.9C548.94 79.9 549.107 82.8 549.373 86.6H547.073C546.807 84.4667 546.473 82.4 546.073 80.4C545.74 78.3333 544.94 76.6667 543.673 75.4C542.473 74.0667 540.407 73.4 537.473 73.4V71.4C539.673 71.4 541.34 70.9667 542.473 70.1C543.673 69.1667 544.54 68 545.073 66.6C545.607 65.2 545.973 63.7667 546.173 62.3C546.373 60.7667 546.573 59.4 546.773 58.2H549.073ZM629.011 37.2V39.2C627.744 39.4667 626.478 40.3 625.211 41.7C623.944 43.0333 622.544 45.1667 621.011 48.1L600.811 88.1H599.111L575.711 44.9C574.378 42.4333 573.244 40.9 572.311 40.3C571.444 39.6333 570.644 39.3 569.911 39.3V37.2C571.244 37.2667 572.611 37.3333 574.011 37.4C575.478 37.4667 577.044 37.5 578.711 37.5C580.911 37.5 583.244 37.5 585.711 37.5C588.244 37.4333 590.578 37.3333 592.711 37.2V39.3C591.044 39.3 589.578 39.5 588.311 39.9C587.044 40.3 586.211 41.0333 585.811 42.1C585.411 43.1667 585.711 44.6667 586.711 46.6L603.611 79L602.811 79.6L616.111 53.1C617.978 49.4333 618.878 46.6 618.811 44.6C618.811 42.6 618.044 41.2333 616.511 40.5C614.978 39.7 612.811 39.2667 610.011 39.2V37.2C611.944 37.2667 613.911 37.3333 615.911 37.4C617.911 37.4667 619.778 37.5 621.511 37.5C623.244 37.5 624.678 37.4667 625.811 37.4C626.944 37.3333 628.011 37.2667 629.011 37.2ZM605.311 77.6V97.4C605.311 99.8 605.511 101.6 605.911 102.8C606.311 104 607.078 104.8 608.211 105.2C609.411 105.6 611.144 105.867 613.411 106V108C611.878 107.867 609.944 107.8 607.611 107.8C605.344 107.733 603.044 107.7 600.711 107.7C598.111 107.7 595.678 107.733 593.411 107.8C591.144 107.8 589.311 107.867 587.911 108V106C590.178 105.867 591.878 105.6 593.011 105.2C594.211 104.8 595.011 104 595.411 102.8C595.811 101.6 596.011 99.8 596.011 97.4V76.9L601.411 83.1L605.311 77.6ZM333.1 170.2C332.833 172.733 332.633 175.2 332.5 177.6C332.433 179.933 332.4 181.733 332.4 183C332.4 184.6 332.433 186.1 332.5 187.5C332.567 188.9 332.633 190.133 332.7 191.2H330.4C329.933 186.533 329.3 182.867 328.5 180.2C327.7 177.467 326.3 175.5 324.3 174.3C322.3 173.1 319.2 172.5 315 172.5H308.7C306.433 172.5 304.7 172.7 303.5 173.1C302.367 173.433 301.6 174.2 301.2 175.4C300.8 176.533 300.6 178.333 300.6 180.8V230.4C300.6 232.8 300.833 234.6 301.3 235.8C301.833 237 302.833 237.8 304.3 238.2C305.767 238.6 307.9 238.867 310.7 239V241C308.967 240.867 306.767 240.8 304.1 240.8C301.433 240.733 298.733 240.7 296 240.7C293.4 240.7 290.967 240.733 288.7 240.8C286.433 240.8 284.6 240.867 283.2 241V239C285.467 238.867 287.167 238.6 288.3 238.2C289.5 237.8 290.3 237 290.7 235.8C291.1 234.6 291.3 232.8 291.3 230.4V180.8C291.3 178.333 291.1 176.533 290.7 175.4C290.3 174.2 289.5 173.4 288.3 173C287.167 172.533 285.467 172.267 283.2 172.2V170.2C285.667 170.267 288.267 170.333 291 170.4C293.733 170.4 296.433 170.433 299.1 170.5C301.767 170.5 304.233 170.5 306.5 170.5C308.833 170.5 310.733 170.5 312.2 170.5C315.267 170.5 318.733 170.5 322.6 170.5C326.533 170.433 330.033 170.333 333.1 170.2ZM317.6 205.4C317.6 205.4 317.6 205.733 317.6 206.4C317.6 207.067 317.6 207.4 317.6 207.4H297.6C297.6 207.4 297.6 207.067 297.6 206.4C297.6 205.733 297.6 205.4 297.6 205.4H317.6ZM319.5 192.2C319.233 196 319.1 198.9 319.1 200.9C319.167 202.9 319.2 204.733 319.2 206.4C319.2 208.067 319.233 209.9 319.3 211.9C319.367 213.9 319.533 216.8 319.8 220.6H317.5C317.233 218.467 316.9 216.4 316.5 214.4C316.167 212.333 315.367 210.667 314.1 209.4C312.9 208.067 310.833 207.4 307.9 207.4V205.4C310.1 205.4 311.767 204.967 312.9 204.1C314.1 203.167 314.967 202 315.5 200.6C316.033 199.2 316.4 197.767 316.6 196.3C316.8 194.767 317 193.4 317.2 192.2H319.5ZM365.634 170.2V172.2C363.367 172.267 361.634 172.533 360.434 173C359.3 173.4 358.534 174.2 358.134 175.4C357.734 176.533 357.534 178.333 357.534 180.8V230.4C357.534 232.8 357.734 234.6 358.134 235.8C358.534 237 359.3 237.8 360.434 238.2C361.634 238.6 363.367 238.867 365.634 239V241C364.1 240.867 362.167 240.8 359.834 240.8C357.567 240.733 355.267 240.7 352.934 240.7C350.334 240.7 347.9 240.733 345.634 240.8C343.367 240.8 341.534 240.867 340.134 241V239C342.4 238.867 344.1 238.6 345.234 238.2C346.434 237.8 347.234 237 347.634 235.8C348.034 234.6 348.234 232.8 348.234 230.4V180.8C348.234 178.333 348.034 176.533 347.634 175.4C347.234 174.2 346.434 173.4 345.234 173C344.1 172.533 342.4 172.267 340.134 172.2V170.2C341.534 170.267 343.367 170.333 345.634 170.4C347.9 170.467 350.334 170.5 352.934 170.5C355.267 170.5 357.567 170.467 359.834 170.4C362.167 170.333 364.1 170.267 365.634 170.2ZM433.52 170.2V172.2C432.254 172.467 430.887 173.233 429.42 174.5C428.02 175.767 426.754 177.9 425.62 180.9L402.12 241.5C401.987 241.5 401.854 241.5 401.72 241.5C401.587 241.5 401.454 241.5 401.32 241.5C401.187 241.5 401.054 241.5 400.92 241.5C400.787 241.5 400.654 241.5 400.52 241.5L376.12 178.6C375.12 176.067 373.987 174.4 372.72 173.6C371.454 172.733 370.287 172.267 369.22 172.2V170.2C370.554 170.267 372.187 170.333 374.12 170.4C376.12 170.467 378.054 170.5 379.92 170.5C382.52 170.5 384.954 170.467 387.22 170.4C389.487 170.333 391.32 170.267 392.72 170.2V172.2C390.454 172.267 388.72 172.533 387.52 173C386.387 173.467 385.754 174.3 385.62 175.5C385.554 176.633 385.954 178.333 386.82 180.6L405.42 229.9L403.82 231.6L421.22 186.4C422.62 182.8 423.287 180 423.22 178C423.154 175.933 422.387 174.467 420.92 173.6C419.454 172.733 417.32 172.267 414.52 172.2V170.2C416.454 170.267 418.42 170.333 420.42 170.4C422.42 170.467 424.287 170.5 426.02 170.5C427.754 170.5 429.187 170.467 430.32 170.4C431.454 170.333 432.52 170.267 433.52 170.2ZM486.909 170.2C486.642 172.533 486.442 174.8 486.309 177C486.242 179.2 486.209 180.867 486.209 182C486.209 183.2 486.242 184.367 486.309 185.5C486.375 186.567 486.442 187.467 486.509 188.2H484.209C483.809 184.267 483.242 181.167 482.509 178.9C481.775 176.567 480.509 174.933 478.709 174C476.975 173 474.342 172.5 470.809 172.5H462.509C460.242 172.5 458.509 172.7 457.309 173.1C456.175 173.433 455.409 174.2 455.009 175.4C454.609 176.533 454.409 178.333 454.409 180.8V230.4C454.409 232.8 454.609 234.6 455.009 235.8C455.409 237 456.175 237.8 457.309 238.2C458.509 238.533 460.242 238.7 462.509 238.7H469.809C474.009 238.7 477.175 238.133 479.309 237C481.509 235.867 483.075 234.033 484.009 231.5C485.009 228.9 485.742 225.4 486.209 221H488.509C488.309 222.8 488.209 225.2 488.209 228.2C488.209 229.467 488.242 231.3 488.309 233.7C488.442 236.033 488.642 238.467 488.909 241C485.509 240.867 481.675 240.8 477.409 240.8C473.142 240.733 469.342 240.7 466.009 240.7C464.542 240.7 462.642 240.7 460.309 240.7C458.042 240.7 455.575 240.733 452.909 240.8C450.242 240.8 447.542 240.833 444.809 240.9C442.075 240.9 439.475 240.933 437.009 241V239C439.275 238.867 440.975 238.6 442.109 238.2C443.309 237.8 444.109 237 444.509 235.8C444.909 234.6 445.109 232.8 445.109 230.4V180.8C445.109 178.333 444.909 176.533 444.509 175.4C444.109 174.2 443.309 173.4 442.109 173C440.975 172.533 439.275 172.267 437.009 172.2V170.2C439.475 170.267 442.075 170.333 444.809 170.4C447.542 170.4 450.242 170.433 452.909 170.5C455.575 170.5 458.042 170.5 460.309 170.5C462.642 170.5 464.542 170.5 466.009 170.5C469.075 170.5 472.542 170.5 476.409 170.5C480.342 170.433 483.842 170.333 486.909 170.2ZM469.709 204.4C469.709 204.4 469.709 204.733 469.709 205.4C469.709 206.067 469.709 206.4 469.709 206.4H451.409C451.409 206.4 451.409 206.067 451.409 205.4C451.409 204.733 451.409 204.4 451.409 204.4H469.709ZM472.609 191.2C472.342 195 472.209 197.9 472.209 199.9C472.275 201.9 472.309 203.733 472.309 205.4C472.309 207.067 472.342 208.9 472.409 210.9C472.475 212.9 472.642 215.8 472.909 219.6H470.609C470.342 217.467 470.009 215.4 469.609 213.4C469.275 211.333 468.475 209.667 467.209 208.4C466.009 207.067 463.942 206.4 461.009 206.4V204.4C463.209 204.4 464.875 203.967 466.009 203.1C467.209 202.167 468.075 201 468.609 199.6C469.142 198.2 469.509 196.767 469.709 195.3C469.909 193.767 470.109 192.4 470.309 191.2H472.609Z" fill="white"/>
</svg>
