<svg width="493" height="245" viewBox="0 0 493 245" fill="none" xmlns="http://www.w3.org/2000/svg">
<path d="M260.141 0L210.07 9.77078L226.299 23.8555L140.947 122.141L96.6439 90.9792L95.8833 90.4389C91.5444 87.4092 85.5307 88.1241 82.0355 92.2385L0 188.899L1.48785 190.387L90.7132 114.66L136.251 146.691C140.968 149.986 147.551 149.284 151.408 144.845L243.509 38.788L257.515 50.9444L260.141 0ZM208.029 96.0703V241.198H246.003V52.345L208.029 96.0703ZM162.014 241.198H199.987V105.334L162.014 149.059V241.198ZM116.003 144.77V241.198H153.972V158.315L146.882 166.486L116.003 144.77ZM69.9872 144.692V241.198H107.961V139.114L91.1829 127.315L69.9872 144.692ZM61.9453 151.279V241.198H23.976V182.403L61.9453 151.279Z" fill="black"/>
<path d="M264.1 81H280.9C286.367 81 290.467 82.4667 293.2 85.4C295.933 88.3333 297.3 92.6333 297.3 98.3V133.7C297.3 139.367 295.933 143.667 293.2 146.6C290.467 149.533 286.367 151 280.9 151H264.1V81ZM280.7 141C282.5 141 283.867 140.467 284.8 139.4C285.8 138.333 286.3 136.6 286.3 134.2V97.8C286.3 95.4 285.8 93.6667 284.8 92.6C283.867 91.5333 282.5 91 280.7 91H275.1V141H280.7ZM313.03 81H327.93L339.33 151H328.33L326.33 137.1V137.3H313.83L311.83 151H301.63L313.03 81ZM325.03 127.8L320.13 93.2H319.93L315.13 127.8H325.03ZM358.673 152C353.34 152 349.307 150.5 346.573 147.5C343.84 144.433 342.473 140.067 342.473 134.4V130.4H352.873V135.2C352.873 139.733 354.773 142 358.573 142C360.44 142 361.84 141.467 362.773 140.4C363.773 139.267 364.273 137.467 364.273 135C364.273 132.067 363.607 129.5 362.273 127.3C360.94 125.033 358.473 122.333 354.873 119.2C350.34 115.2 347.173 111.6 345.373 108.4C343.573 105.133 342.673 101.467 342.673 97.4C342.673 91.8667 344.073 87.6 346.873 84.6C349.673 81.5333 353.74 80 359.073 80C364.34 80 368.307 81.5333 370.973 84.6C373.707 87.6 375.073 91.9333 375.073 97.6V100.5H364.673V96.9C364.673 94.5 364.207 92.7667 363.273 91.7C362.34 90.5667 360.973 90 359.173 90C355.507 90 353.673 92.2333 353.673 96.7C353.673 99.2333 354.34 101.6 355.673 103.8C357.073 106 359.573 108.667 363.173 111.8C367.773 115.8 370.94 119.433 372.673 122.7C374.407 125.967 375.273 129.8 375.273 134.2C375.273 139.933 373.84 144.333 370.973 147.4C368.173 150.467 364.073 152 358.673 152ZM381.58 81H392.58V109.5H404.38V81H415.38V151H404.38V119.5H392.58V151H381.58V81Z" fill="black"/>
<path d="M278.4 242C273.067 242 269.033 240.5 266.3 237.5C263.567 234.433 262.2 230.067 262.2 224.4V220.4H272.6V225.2C272.6 229.733 274.5 232 278.3 232C280.167 232 281.567 231.467 282.5 230.4C283.5 229.267 284 227.467 284 225C284 222.067 283.333 219.5 282 217.3C280.667 215.033 278.2 212.333 274.6 209.2C270.067 205.2 266.9 201.6 265.1 198.4C263.3 195.133 262.4 191.467 262.4 187.4C262.4 181.867 263.8 177.6 266.6 174.6C269.4 171.533 273.467 170 278.8 170C284.067 170 288.033 171.533 290.7 174.6C293.433 177.6 294.8 181.933 294.8 187.6V190.5H284.4V186.9C284.4 184.5 283.933 182.767 283 181.7C282.067 180.567 280.7 180 278.9 180C275.233 180 273.4 182.233 273.4 186.7C273.4 189.233 274.067 191.6 275.4 193.8C276.8 196 279.3 198.667 282.9 201.8C287.5 205.8 290.667 209.433 292.4 212.7C294.133 215.967 295 219.8 295 224.2C295 229.933 293.567 234.333 290.7 237.4C287.9 240.467 283.8 242 278.4 242ZM301.307 171H317.507C322.974 171 327.074 172.467 329.807 175.4C332.54 178.333 333.907 182.633 333.907 188.3V195.2C333.907 200.867 332.54 205.167 329.807 208.1C327.074 211.033 322.974 212.5 317.507 212.5H312.307V241H301.307V171ZM317.507 202.5C319.307 202.5 320.64 202 321.507 201C322.44 200 322.907 198.3 322.907 195.9V187.6C322.907 185.2 322.44 183.5 321.507 182.5C320.64 181.5 319.307 181 317.507 181H312.307V202.5H317.507ZM339.881 171H350.881V199.5H362.681V171H373.681V241H362.681V209.5H350.881V241H339.881V171ZM381.873 171H411.873V181H392.873V199.5H407.973V209.5H392.873V231H411.873V241H381.873V171ZM418.202 171H434.502C440.168 171 444.302 172.333 446.902 175C449.502 177.6 450.802 181.633 450.802 187.1V191.4C450.802 198.667 448.402 203.267 443.602 205.2V205.4C446.268 206.2 448.135 207.833 449.202 210.3C450.335 212.767 450.902 216.067 450.902 220.2V232.5C450.902 234.5 450.968 236.133 451.102 237.4C451.235 238.6 451.568 239.8 452.102 241H440.902C440.502 239.867 440.235 238.8 440.102 237.8C439.968 236.8 439.902 235 439.902 232.4V219.6C439.902 216.4 439.368 214.167 438.302 212.9C437.302 211.633 435.535 211 433.002 211H429.202V241H418.202V171ZM433.202 201C435.402 201 437.035 200.433 438.102 199.3C439.235 198.167 439.802 196.267 439.802 193.6V188.2C439.802 185.667 439.335 183.833 438.402 182.7C437.535 181.567 436.135 181 434.202 181H429.202V201H433.202ZM458.534 171H488.534V181H469.534V199.5H484.634V209.5H469.534V231H488.534V241H458.534V171Z" fill="black"/>
</svg>
